<?xml version="1.0" encoding="iso-8859-1"?>
<!-- Uploaded to: SVG Repo, www.svgrepo.com, Generator: SVG Repo Mixer Tools -->
<svg fill="#000000" version="1.1" id="Layer_1" xmlns="http://www.w3.org/2000/svg" xmlns:xlink="http://www.w3.org/1999/xlink" 
	 viewBox="0 0 512 512" xml:space="preserve">
<g>
	<g>
		<path d="M455.823,36.235V19.791h-15.775v16.443h-15.775V19.791h-15.775v16.443h-16.827V19.791h-15.775v16.443h-15.776V19.791
			h-15.775v16.443h-16.827V19.791H311.74v16.443h-15.775V19.791h-15.776v16.443h-16.827V19.791h-15.775v16.443h-15.775V19.791
			h-15.775v16.443H200.26V19.791h-15.776v16.443h-16.827V19.791h-15.775v16.443h-15.775V19.791h-15.775v16.443h-16.827V19.791
			H87.728v16.443H71.953V19.791H56.177v16.443H0v399.949h315.793c10.182,32.432,40.521,56.025,76.268,56.025
			c35.748,0,66.087-23.594,76.269-56.025H512V36.235H455.823z M392.061,476.434c-35.37,0-64.144-28.774-64.144-64.144
			s28.774-64.145,64.144-64.145c35.37,0,64.145,28.776,64.145,64.145S427.431,476.434,392.061,476.434z M344.343,236.441v24.189
			H311.74v-24.189H344.343z M311.74,220.666v-24.591h32.603v24.591H311.74z M344.343,276.406v24.189H311.74v-24.189H344.343z
			 M344.343,316.37v24.002H311.74V316.37H344.343z M391.669,236.441v24.189h-31.551v-24.189H391.669z M360.118,220.666v-24.591
			h31.551v24.591H360.118z M391.669,276.406v24.189h-31.551v-24.189H391.669z M391.669,316.37v16.008
			c-11.209,0.055-21.874,2.435-31.551,6.672v-22.68H391.669z M440.2,236.441v24.189h-32.755v-24.189H440.2z M407.444,220.666
			v-24.591H440.2v24.591H407.444z M440.2,276.406v24.189h-32.755v-24.189H440.2z M440.2,316.37v24.002h-13.304
			c-6.094-2.963-12.618-5.165-19.451-6.503V316.37H440.2z M496.225,100.772h-40.402v15.775h40.402v303.861h-24.653
			c0.27-2.67,0.41-5.378,0.41-8.119c0-21.864-8.831-41.698-23.106-56.142h7.099V180.3H56.025v175.848h279.223
			c-14.275,14.444-23.106,34.278-23.106,56.142c0,2.741,0.14,5.449,0.41,8.119H15.775V116.548h40.402v-15.775H15.775V52.01h40.402
			v16.159h15.775V52.01h15.775v16.159h15.775V52.01h16.827v16.159h15.776V52.01h15.775v16.159h15.775V52.01h16.827v16.159h15.775
			V52.01h15.776v16.159h15.775V52.01h15.775v16.159h15.775V52.01h16.827v16.159h15.776V52.01h15.775v16.159h15.775V52.01h16.827
			v16.159h15.775V52.01h15.776v16.159h15.775V52.01h16.827v16.159h15.775V52.01h15.775v16.159h15.775V52.01h40.402V100.772z
			 M263.362,300.595v-24.189h32.603v24.189H263.362z M295.965,316.37v24.002h-32.603V316.37H295.965z M295.964,236.441v24.189
			h-32.603v-24.189H295.964z M263.362,220.666v-24.591h32.603v24.591H263.362z M216.036,300.595v-24.189h31.551v24.189H216.036z
			 M247.586,316.37v24.002h-31.551V316.37H247.586z M216.036,260.63v-24.189h31.551v24.189H216.036z M216.036,220.666v-24.591
			h31.551v24.591H216.036z M167.657,300.595v-24.189h32.603v24.189H167.657z M200.26,316.37v24.002h-32.603V316.37H200.26z
			 M167.657,260.63v-24.189h32.603v24.189H167.657z M167.657,220.666v-24.591h32.603v24.591H167.657z M120.331,300.595v-24.189
			h31.551v24.189H120.331z M151.882,316.37v24.002h-31.551V316.37H151.882z M120.331,260.63v-24.189h31.551v24.189H120.331z
			 M120.331,220.666v-24.591h31.551v24.591H120.331z M71.8,300.595v-24.189h32.755v24.189H71.8z M104.556,316.37v24.002H71.8V316.37
			H104.556z M71.8,260.63v-24.189h32.755v24.189H71.8z M71.8,220.666v-24.591h32.755v24.591H71.8z"/>
	</g>
</g>
<g>
	<g>
		<polygon points="426.501,382.701 384.058,425.145 365.625,406.712 354.469,417.867 384.058,447.455 437.658,393.856 		"/>
	</g>
</g>
<g>
	<g>
		<rect x="71.957" y="100.774" width="368.094" height="15.775"/>
	</g>
</g>
<g>
	<g>
		<rect x="56.182" y="140.739" width="191.409" height="15.775"/>
	</g>
</g>
<g>
	<g>
		<rect x="56.182" y="380.526" width="15.775" height="15.775"/>
	</g>
</g>
<g>
	<g>
		<rect x="80.371" y="380.526" width="15.775" height="15.775"/>
	</g>
</g>
<g>
	<g>
		<rect x="103.508" y="380.526" width="16.827" height="15.775"/>
	</g>
</g>
<g>
	<g>
		<rect x="127.697" y="380.526" width="15.776" height="15.775"/>
	</g>
</g>
<g>
	<g>
		<rect x="151.886" y="380.526" width="15.775" height="15.775"/>
	</g>
</g>
</svg>