<?xml version="1.0" encoding="iso-8859-1"?>
<!-- Uploaded to: SVG Repo, www.svgrepo.com, Generator: SVG Repo Mixer Tools -->
<!DOCTYPE svg PUBLIC "-//W3C//DTD SVG 1.1//EN" "http://www.w3.org/Graphics/SVG/1.1/DTD/svg11.dtd">
<svg fill="#000000" version="1.1" id="Capa_1" xmlns="http://www.w3.org/2000/svg" xmlns:xlink="http://www.w3.org/1999/xlink" 
	 width="800px" height="800px" viewBox="0 0 329.336 329.336"
	 xml:space="preserve">
<g>
	<g>
		<path d="M6.214,183.307c1.021,0.808,2.263,1.498,3.607,2.284c1.323,0.827,2.813,1.613,4.472,2.341
			c1.619,0.823,3.391,1.566,5.313,2.226c1.891,0.765,3.942,1.371,6.102,1.951c4.311,1.234,9.118,2.004,14.246,2.553
			c5.136,0.39,10.616,0.5,16.255-0.032c2.818-0.264,5.695-0.532,8.564-1.118c2.9-0.432,5.783-1.107,8.677-1.866
			c5.812-1.456,11.512-3.555,17.308-6.064c5.36-2.526,10.779-5.279,15.293-7.214c2.439-0.729,4.823-1.529,7.204-2.067
			c2.444-0.228,4.756-0.96,7.127-0.823c2.349-0.062,4.633-0.121,6.874,0.254c1.961,0.115,3.855,0.559,5.703,0.996l-6.46-16.627
			c-2.547,0.031-5.118,0.309-7.72,0.69c-3.117,0.262-6.114,1.458-9.197,2.199c-2.993,1.044-5.906,2.395-8.812,3.691
			c-5.708,3.259-10.336,6.418-15.214,9.424c-4.633,2.657-9.643,5.226-14.789,7.161c-2.561,1.018-5.131,1.946-7.744,2.643
			c-2.582,0.844-5.189,1.396-7.771,1.951c-5.163,1.097-10.265,1.582-15.13,1.782c-4.856,0.042-9.5-0.147-13.711-0.854
			c-2.117-0.306-4.147-0.648-6.027-1.171c-1.917-0.411-3.699-0.938-5.339-1.54c-1.679-0.517-3.208-1.107-4.575-1.761
			c-1.392-0.612-2.689-1.149-3.763-1.814c-2.246-1.171-3.921-2.257-4.996-3.101C0.593,178.609,0,178.187,0,178.187
			s0.541,0.485,1.561,1.402C2.539,180.571,4.082,181.863,6.214,183.307z"/>
		<path d="M9.822,217.991c1.323,0.833,2.813,1.624,4.472,2.347c1.619,0.817,3.391,1.566,5.313,2.226
			c1.891,0.765,3.942,1.371,6.102,1.946c4.311,1.238,9.118,2.014,14.246,2.557c5.136,0.386,10.616,0.502,16.255-0.025
			c2.818-0.264,5.695-0.538,8.564-1.118c2.9-0.433,5.783-1.107,8.677-1.878c5.812-1.45,11.512-3.543,17.308-6.054
			c5.36-2.531,10.779-5.284,15.293-7.225c2.439-0.723,4.823-1.519,7.204-2.062c2.444-0.227,4.756-0.96,7.127-0.828
			c2.349-0.059,4.633-0.116,6.874,0.264c2.236,0.127,4.396,0.675,6.486,1.171c4.179,1.022,7.997,2.615,11.425,4.292
			c0.958,0.49,1.804,1.002,2.7,1.509l-8.385-21.59c-0.923-0.158-1.777-0.406-2.732-0.527c-2.853-0.337-5.758-0.675-8.799-0.532
			c-3.011-0.111-6.08,0.284-9.167,0.743c-3.117,0.264-6.115,1.461-9.197,2.199c-2.993,1.05-5.906,2.389-8.812,3.687
			c-5.708,3.264-10.336,6.423-15.211,9.429c-4.635,2.657-9.645,5.231-14.792,7.161c-2.56,1.013-5.131,1.945-7.744,2.642
			c-2.581,0.85-5.189,1.397-7.771,1.946c-5.162,1.107-10.265,1.593-15.129,1.793c-4.854,0.042-9.5-0.153-13.711-0.854
			c-2.118-0.306-4.148-0.653-6.028-1.181c-1.917-0.412-3.699-0.929-5.339-1.54c-1.68-0.507-3.209-1.097-4.575-1.757
			c-1.392-0.611-2.689-1.144-3.763-1.809c-2.247-1.17-3.92-2.268-4.997-3.105c-1.118-0.786-1.711-1.208-1.711-1.208
			s0.54,0.485,1.561,1.397c0.983,0.965,2.526,2.257,4.659,3.702C7.23,216.514,8.477,217.205,9.822,217.991z"/>
		<polygon points="170.986,232.029 181.57,214.426 205.727,174.263 130.852,152.049 129.389,152.622 132.305,160.139 
			139.535,178.741 145.779,194.82 155.611,220.137 163.732,241.041 166.131,240.113 		"/>
		<polygon points="293.377,88.918 251.849,156.347 326.774,177.712 329.336,176.715 294.991,88.296 		"/>
		<polygon points="318.442,180.945 248.917,161.12 235.396,183.065 211.069,175.851 184.227,220.491 177.63,231.47 174.35,236.912 
			173.702,237.999 319.666,181.298 		"/>
		<path d="M6.214,145.507c1.021,0.807,2.263,1.498,3.607,2.281c1.323,0.83,2.813,1.619,4.472,2.344
			c1.619,0.82,3.391,1.566,5.313,2.223c1.891,0.768,3.942,1.374,6.102,1.951c4.311,1.236,9.118,2.009,14.246,2.555
			c5.136,0.388,10.616,0.501,16.255-0.028c2.818-0.264,5.695-0.536,8.564-1.118c2.9-0.433,5.783-1.107,8.677-1.872
			c5.812-1.453,11.512-3.549,17.308-6.06c5.36-2.528,10.779-5.281,15.293-7.219c2.439-0.726,4.823-1.524,7.204-2.065
			c2.444-0.227,4.756-0.959,7.127-0.825c2.349-0.061,4.633-0.119,6.874,0.258c2.236,0.129,4.396,0.675,6.486,1.173
			c2.927,0.712,5.606,1.749,8.168,2.856l23.625-9.182c-3.741-2.104-8.11-4.264-13.273-6.178c-4.643-1.635-9.827-3.108-15.52-3.818
			c-2.85-0.337-5.756-0.675-8.796-0.533c-3.014-0.113-6.08,0.285-9.168,0.744c-3.117,0.261-6.114,1.458-9.197,2.199
			c-2.993,1.047-5.906,2.392-8.812,3.689c-5.708,3.261-10.336,6.42-15.214,9.426c-4.633,2.658-9.643,5.229-14.789,7.161
			c-2.561,1.016-5.131,1.946-7.744,2.643c-2.582,0.846-5.189,1.397-7.771,1.948c-5.163,1.103-10.265,1.587-15.13,1.788
			c-4.856,0.042-9.5-0.15-13.711-0.854c-2.117-0.306-4.147-0.651-6.027-1.176c-1.917-0.412-3.699-0.937-5.339-1.54
			c-1.679-0.512-3.208-1.103-4.575-1.759c-1.392-0.612-2.689-1.147-3.763-1.809c-2.246-1.174-3.921-2.265-4.996-3.106
			C0.593,140.817,0,140.395,0,140.395s0.541,0.485,1.561,1.4C2.539,142.771,4.082,144.062,6.214,145.507z"/>
		<polygon points="275.495,95.866 171.347,136.319 148.429,145.223 139.076,148.856 162.746,155.883 178.87,160.661 
			208.596,169.486 211.27,170.277 213.943,171.068 232.97,176.71 243.517,159.583 244.988,157.193 246.459,154.807 285.04,92.156 		
			"/>
	</g>
</g>
</svg>