<?xml version="1.0" encoding="UTF-8" standalone="no"?>
<!-- Uploaded to: SVG Repo, www.svgrepo.com, Generator: SVG Repo Mixer Tools -->

<svg
   fill="#000000"
   width="800px"
   height="800px"
   viewBox="-6 -2 24 24"
   preserveAspectRatio="xMinYMin"
   class="jam jam-padlock-alt"
   version="1.1"
   id="svg4"
   sodipodi:docname="padlock.svg"
   inkscape:version="1.2.2 (b0a8486541, 2022-12-01)"
   xmlns:inkscape="http://www.inkscape.org/namespaces/inkscape"
   xmlns:sodipodi="http://sodipodi.sourceforge.net/DTD/sodipodi-0.dtd"
   xmlns="http://www.w3.org/2000/svg"
   xmlns:svg="http://www.w3.org/2000/svg">
  <defs
     id="defs8" />
  <sodipodi:namedview
     id="namedview6"
     pagecolor="#ffffff"
     bordercolor="#000000"
     borderopacity="0.25"
     inkscape:showpageshadow="2"
     inkscape:pageopacity="0.0"
     inkscape:pagecheckerboard="0"
     inkscape:deskcolor="#d1d1d1"
     showgrid="false"
     inkscape:zoom="0.7325"
     inkscape:cx="400"
     inkscape:cy="400.68259"
     inkscape:window-width="1920"
     inkscape:window-height="1016"
     inkscape:window-x="0"
     inkscape:window-y="0"
     inkscape:window-maximized="1"
     inkscape:current-layer="svg4" />
  <path
     d="m 6.0239479,19.548817 a 4.7544583,4.7544583 0 1 0 0,-9.508916 4.7544583,4.7544583 0 0 0 0,9.508916 z M 1.2694898,9.4788743 v -6.570661 a 4.7544586,4.7544586 0 1 1 9.5089172,0 v 6.570661 a 7.1316875,7.1316875 0 1 1 -9.5089172,0 z M 3.6467187,8.0668006 A 7.1198012,7.1198012 0 0 1 6.0239479,7.6626717 c 0.8332189,0 1.6331564,0.1426337 2.3772294,0.4053175 V 2.9082133 a 2.3772293,2.3772293 0 1 0 -4.7544586,0 v 5.1597759 z m 2.3772292,9.1047874 a 2.3772293,2.3772293 0 1 1 0,-4.754458 2.3772293,2.3772293 0 0 1 0,4.754458 z"
     id="path2"
     style="stroke-width:1.18861" />
</svg>
